<?xml version="1.0" encoding="UTF-8"?>
<svg width="23px" height="23px" viewBox="0 0 23 23" version="1.1" xmlns="http://www.w3.org/2000/svg" xmlns:xlink="http://www.w3.org/1999/xlink">
    <!-- Generator: Sketch 62 (91390) - https://sketch.com -->
    <title>Icons / UI / List</title>
    <desc>Created with Sketch.</desc>
    <g id="Icons-/-UI-/-List" stroke="none" stroke-width="1" fill="none" fill-rule="evenodd">
        <g id="Table">
            <polygon id="Path" points="0 0 23 0 23 23 0 23"></polygon>
        </g>
        <g id="List">
            <polygon id="Path" points="0 0 23 0 23 23 0 23"></polygon>
            <path d="M3.83333333,10.0625 C3.03791667,10.0625 2.39583333,10.7045833 2.39583333,11.5 C2.39583333,12.2954167 3.03791667,12.9375 3.83333333,12.9375 C4.62875,12.9375 5.27083333,12.2954167 5.27083333,11.5 C5.27083333,10.7045833 4.62875,10.0625 3.83333333,10.0625 Z M3.83333333,4.3125 C3.03791667,4.3125 2.39583333,4.95458333 2.39583333,5.75 C2.39583333,6.54541667 3.03791667,7.1875 3.83333333,7.1875 C4.62875,7.1875 5.27083333,6.54541667 5.27083333,5.75 C5.27083333,4.95458333 4.62875,4.3125 3.83333333,4.3125 Z M3.83333333,15.8125 C3.03791667,15.8125 2.39583333,16.4641667 2.39583333,17.25 C2.39583333,18.0358333 3.0475,18.6875 3.83333333,18.6875 C4.61916667,18.6875 5.27083333,18.0358333 5.27083333,17.25 C5.27083333,16.4641667 4.62875,15.8125 3.83333333,15.8125 Z M7.66666667,18.2083333 L19.1666667,18.2083333 C19.69375,18.2083333 20.125,17.7770833 20.125,17.25 C20.125,16.7229167 19.69375,16.2916667 19.1666667,16.2916667 L7.66666667,16.2916667 C7.13958333,16.2916667 6.70833333,16.7229167 6.70833333,17.25 C6.70833333,17.7770833 7.13958333,18.2083333 7.66666667,18.2083333 Z M7.66666667,12.4583333 L19.1666667,12.4583333 C19.69375,12.4583333 20.125,12.0270833 20.125,11.5 C20.125,10.9729167 19.69375,10.5416667 19.1666667,10.5416667 L7.66666667,10.5416667 C7.13958333,10.5416667 6.70833333,10.9729167 6.70833333,11.5 C6.70833333,12.0270833 7.13958333,12.4583333 7.66666667,12.4583333 Z M6.70833333,5.75 C6.70833333,6.27708333 7.13958333,6.70833333 7.66666667,6.70833333 L19.1666667,6.70833333 C19.69375,6.70833333 20.125,6.27708333 20.125,5.75 C20.125,5.22291667 19.69375,4.79166667 19.1666667,4.79166667 L7.66666667,4.79166667 C7.13958333,4.79166667 6.70833333,5.22291667 6.70833333,5.75 Z" id="Shape" fill="#457B9D" fill-rule="nonzero"></path>
        </g>
    </g>
</svg>